<mxfile host="app.diagrams.net" agent="Mozilla/5.0 (Windows NT 10.0; Win64; x64) AppleWebKit/537.36 (KHTML, like Gecko) Chrome/133.0.0.0 Safari/537.36" version="26.1.0">
  <diagram name="Page-1" id="bdGQLm4Uxz-AWj63MGL8">
    <mxGraphModel dx="713" dy="323" grid="1" gridSize="10" guides="1" tooltips="1" connect="1" arrows="1" fold="1" page="1" pageScale="1" pageWidth="850" pageHeight="1100" math="0" shadow="0">
      <root>
        <mxCell id="0" />
        <mxCell id="1" parent="0" />
        <mxCell id="xDN1T8_fAZ7rBtJuNGKS-4" value="" style="rounded=0;whiteSpace=wrap;html=1;" vertex="1" parent="1">
          <mxGeometry x="320" y="100" width="240" height="190" as="geometry" />
        </mxCell>
        <mxCell id="xDN1T8_fAZ7rBtJuNGKS-1" value="User" style="shape=umlActor;verticalLabelPosition=bottom;verticalAlign=top;html=1;outlineConnect=0;" vertex="1" parent="1">
          <mxGeometry x="130" y="148" width="30" height="60" as="geometry" />
        </mxCell>
        <mxCell id="xDN1T8_fAZ7rBtJuNGKS-2" value="Large Language Model" style="sketch=0;points=[[0,0,0],[0.25,0,0],[0.5,0,0],[0.75,0,0],[1,0,0],[0,1,0],[0.25,1,0],[0.5,1,0],[0.75,1,0],[1,1,0],[0,0.25,0],[0,0.5,0],[0,0.75,0],[1,0.25,0],[1,0.5,0],[1,0.75,0]];outlineConnect=0;fontColor=#232F3E;fillColor=#01A88D;strokeColor=#ffffff;dashed=0;verticalLabelPosition=bottom;verticalAlign=top;align=center;html=1;fontSize=12;fontStyle=0;aspect=fixed;shape=mxgraph.aws4.resourceIcon;resIcon=mxgraph.aws4.augmented_ai;" vertex="1" parent="1">
          <mxGeometry x="402" y="130" width="78" height="78" as="geometry" />
        </mxCell>
        <mxCell id="xDN1T8_fAZ7rBtJuNGKS-5" value="pre-trained data" style="text;html=1;align=center;verticalAlign=middle;whiteSpace=wrap;rounded=0;fontSize=9;fontFamily=Tahoma;fillColor=#dae8fc;strokeColor=#6c8ebf;" vertex="1" parent="1">
          <mxGeometry x="330" y="250" width="60" height="30" as="geometry" />
        </mxCell>
        <mxCell id="xDN1T8_fAZ7rBtJuNGKS-6" value="Context&lt;br&gt;Data" style="text;html=1;align=center;verticalAlign=middle;whiteSpace=wrap;rounded=0;fontSize=9;fontFamily=Tahoma;fillColor=#dae8fc;strokeColor=#6c8ebf;" vertex="1" parent="1">
          <mxGeometry x="401" y="250" width="60" height="30" as="geometry" />
        </mxCell>
        <mxCell id="xDN1T8_fAZ7rBtJuNGKS-7" value="External Database (RAG)" style="text;html=1;align=center;verticalAlign=middle;whiteSpace=wrap;rounded=0;fontSize=9;fontFamily=Tahoma;fillColor=#dae8fc;strokeColor=#6c8ebf;" vertex="1" parent="1">
          <mxGeometry x="480" y="250" width="70" height="30" as="geometry" />
        </mxCell>
        <mxCell id="xDN1T8_fAZ7rBtJuNGKS-8" value="AI App" style="rounded=0;whiteSpace=wrap;html=1;" vertex="1" parent="1">
          <mxGeometry x="484" y="92" width="66" height="20" as="geometry" />
        </mxCell>
        <mxCell id="xDN1T8_fAZ7rBtJuNGKS-10" value="" style="shape=flexArrow;endArrow=classic;html=1;rounded=0;fillColor=#d5e8d4;strokeColor=#82b366;" edge="1" parent="1">
          <mxGeometry width="50" height="50" relative="1" as="geometry">
            <mxPoint x="170" y="170" as="sourcePoint" />
            <mxPoint x="307" y="170" as="targetPoint" />
          </mxGeometry>
        </mxCell>
        <mxCell id="xDN1T8_fAZ7rBtJuNGKS-11" value="&lt;font face=&quot;Tahoma&quot; style=&quot;font-size: 8px;&quot;&gt;Response / output&lt;/font&gt;" style="text;html=1;align=center;verticalAlign=middle;whiteSpace=wrap;rounded=0;" vertex="1" parent="1">
          <mxGeometry x="200" y="178" width="80" height="30" as="geometry" />
        </mxCell>
        <mxCell id="xDN1T8_fAZ7rBtJuNGKS-12" value="" style="shape=flexArrow;endArrow=classic;html=1;rounded=0;fillColor=#b0e3e6;strokeColor=#0e8088;exitX=-0.011;exitY=0.526;exitDx=0;exitDy=0;exitPerimeter=0;" edge="1" parent="1">
          <mxGeometry width="50" height="50" relative="1" as="geometry">
            <mxPoint x="307.36" y="210.00000000000006" as="sourcePoint" />
            <mxPoint x="170" y="210.06" as="targetPoint" />
          </mxGeometry>
        </mxCell>
        <mxCell id="xDN1T8_fAZ7rBtJuNGKS-13" value="&lt;font face=&quot;Tahoma&quot; style=&quot;font-size: 8px;&quot;&gt;Prompt / query&lt;/font&gt;" style="text;html=1;align=center;verticalAlign=middle;whiteSpace=wrap;rounded=0;" vertex="1" parent="1">
          <mxGeometry x="200" y="140" width="70" height="30" as="geometry" />
        </mxCell>
      </root>
    </mxGraphModel>
  </diagram>
</mxfile>
